<svg width="175" height="64" viewBox="0 0 175 64" fill="none" xmlns="http://www.w3.org/2000/svg">
<g id="Group 4">
<path id="Vector" d="M0 45.9908C0.887272 45.852 4.55186 45.1819 7.1533 41.8677C8.97772 39.543 9.35311 37.1058 9.45024 36.043C9.56049 37.0665 9.98312 39.721 12.0753 42.1949C14.4589 45.0117 17.4777 45.784 18.4411 45.9908C17.5906 46.1269 14.3066 46.75 11.8784 49.7212C10.0409 51.9726 9.67599 54.3705 9.58149 55.3496C9.45811 54.4517 8.93047 51.4411 6.30016 48.9359C3.79322 46.5484 0.926648 46.0981 0 45.9908Z" fill="#8F4B9D"/>
<path id="Vector_2" d="M168.516 44.681C167.099 43.6888 166.421 42.4454 166.154 41.8668C162.906 35.0787 159.675 27.9425 156.506 20.4659C153.653 13.7302 151.036 7.15677 148.631 0.766602H147.581C141.588 14.5967 135.593 28.4294 129.6 42.2595C129.416 42.7752 129.001 43.6993 128.09 44.4847C126.339 45.9952 124.191 46.215 123.769 46.2308H135.44C134.855 46.2308 133.39 46.003 132.093 45.27C131.752 45.0763 131.311 44.8198 131.043 44.2883C130.579 43.3668 131.022 42.3799 131.109 42.194C132.881 38.0709 134.653 33.9478 136.425 29.8247H149.287C150.681 33.5787 152.183 36.5238 153.356 38.5945C155.682 42.6993 156.905 43.7124 157.622 44.2229C160.292 46.1234 163.282 46.2831 164.907 46.2308H171.863C171.228 46.1653 169.881 45.6365 168.516 44.681ZM136.753 28.3849L142.528 14.9684H143.184L148.697 28.3849H136.753Z" fill="#8F4B9D"/>
<path id="Vector_3" d="M86.3279 1.20432V3.5185C83.0597 1.09437 79.4607 0.418969 78.3661 0.329963C75.7436 0.120535 72.4072 0.225249 68.7846 1.31951C56.5518 5.01329 51.3804 16.8591 50.4511 19.0921C50.2306 17.3198 49.6164 14.3459 47.6502 11.3249C44.4896 6.47143 39.8117 4.55517 37.0633 3.47138C34.7165 2.54728 32.1649 1.90329 25.3476 1.42161C20.8614 1.10485 14.7161 0.869239 7.31343 1.20432C8.09833 1.43731 9.32161 1.93209 10.3769 3.03682C10.6578 3.33002 10.8888 3.62845 11.0778 3.90856V25.6367L22.0164 38.6395V2.33785C25.1324 2.17031 30.9784 2.40068 35.1654 6.33269C39.8091 10.6914 39.9246 17.1496 39.7907 26.2467C39.7199 30.9719 39.0505 33.8175 38.1186 36.1945C37.2917 38.3071 36.1419 41.0427 33.3068 43.1763C31.1149 44.8255 28.86 45.3936 27.5317 45.6187C30.4534 45.8543 34.4514 45.6946 38.6462 43.9747C40.0716 43.3909 42.0194 42.5689 44.0092 40.7652C46.9257 38.1238 48.1621 34.9248 48.7055 32.9667C48.947 34.0295 50.69 41.1815 57.3682 44.3255C60.2164 45.6659 62.9018 45.7784 64.5451 45.6973C66.7397 45.7444 74.5597 45.6449 81.7839 39.9485C88.6222 34.5557 90.5884 27.5713 91.1292 25.532C91.8379 22.8618 94.5995 12.4297 88.6065 5.60754C88.6117 5.60754 88.6143 5.61016 88.6196 5.61278C88.5986 5.52115 88.2862 4.04207 89.2234 3.12321C89.2654 3.08132 89.8849 2.48969 90.6225 2.42424C90.7511 2.41377 91.3234 2.37974 91.3234 2.37974L98.8049 2.41639C98.7366 2.40592 99.5267 2.41115 99.9205 2.61796C100.506 2.92425 100.574 3.85359 100.598 4.16773C100.706 5.57037 100.838 19.9073 100.932 39.7766C100.94 41.5114 100.975 43.414 99.8102 44.6999C98.6815 45.9486 97.2377 46.1763 96.8361 46.2261H115.387C115.088 46.2104 113.807 46.1057 112.762 45.048C111.665 43.9381 111.618 42.5794 111.615 42.2967C111.502 29.587 111.389 16.8748 111.277 4.16511C111.308 3.96615 111.421 3.41117 111.802 3.07347C111.972 2.92163 112.25 2.76456 112.282 2.74624C112.479 2.63629 112.586 2.60225 112.618 2.5944C112.66 2.58131 112.899 2.51063 113.02 2.52895C113.035 2.52895 113.106 2.54466 113.193 2.52372C113.193 2.52372 113.195 2.52372 113.198 2.52372C113.198 2.52372 116.138 2.53419 120.945 2.55252C121.394 2.55252 122.013 2.68603 122.651 3.07609C122.651 3.07609 123.173 3.39546 123.614 3.94783C124.352 4.87716 124.877 7.51072 124.751 10.9715C125.071 10.9427 125.392 10.9139 125.714 10.8851V1.20432H86.3384H86.3279ZM82.2801 11.304C80.0934 19.5502 77.9041 27.7964 75.7174 36.0426C75.5336 36.7704 73.9848 42.5375 68.7426 44.4747C67.7871 44.8281 64.3902 46.0821 61.6077 44.2234C59.0614 42.5218 57.9457 38.8254 59.0482 35.061C61.3452 26.7283 63.6421 18.3931 65.939 10.0605C66.2987 8.98719 67.9708 4.39548 72.6303 2.34832C73.8536 1.81166 77.4368 0.23572 80.18 2.07607C82.6187 3.7096 83.5847 7.49763 82.2801 11.304Z" fill="#8F4B9D"/>
<g id="Group">
<path id="Vector_4" d="M100.414 61.331C100.414 61.5771 100.367 61.8075 100.272 62.0221C100.178 62.2368 100.049 62.4253 99.889 62.5876C99.7289 62.7499 99.5372 62.8782 99.322 62.9698C99.1067 63.064 98.8731 63.1111 98.629 63.1111H95.6495V57.166H98.629C98.8757 57.166 99.1067 57.2131 99.322 57.3074C99.5372 57.4016 99.7262 57.5299 99.889 57.6896C100.052 57.8493 100.18 58.0404 100.272 58.255C100.367 58.4697 100.414 58.7027 100.414 58.9462C100.414 59.0561 100.398 59.1687 100.369 59.2865C100.338 59.4017 100.296 59.5142 100.241 59.6216C100.186 59.7289 100.12 59.8284 100.041 59.9148C99.9625 60.0038 99.8785 60.0771 99.784 60.1347C99.8811 60.187 99.9678 60.2577 100.047 60.3493C100.123 60.4383 100.191 60.5378 100.246 60.6451C100.301 60.7525 100.343 60.865 100.372 60.9828C100.401 61.1006 100.417 61.2132 100.417 61.3258L100.414 61.331ZM96.8387 59.5483H98.6263C98.7103 59.5483 98.7865 59.5325 98.86 59.5038C98.9335 59.475 98.9939 59.4305 99.049 59.3781C99.1041 59.3257 99.1461 59.2603 99.175 59.187C99.2039 59.1137 99.2196 59.0352 99.2196 58.954C99.2196 58.8729 99.2039 58.7943 99.175 58.721C99.1461 58.6477 99.1015 58.5875 99.049 58.5325C98.9965 58.4776 98.9309 58.4357 98.86 58.4069C98.7891 58.3781 98.7103 58.3624 98.6263 58.3624H96.8387V59.5509V59.5483ZM96.8387 61.9226H98.6263C98.7103 61.9226 98.7865 61.9069 98.86 61.8781C98.9309 61.8467 98.9939 61.8048 99.049 61.7525C99.1041 61.7001 99.1461 61.6347 99.175 61.564C99.2039 61.4933 99.2196 61.4148 99.2196 61.331C99.2196 61.2472 99.2039 61.1713 99.175 61.098C99.1435 61.0273 99.1015 60.9645 99.049 60.9095C98.9939 60.8546 98.9309 60.8127 98.86 60.7839C98.7891 60.7551 98.7103 60.7394 98.6263 60.7394H96.8387V61.9253V61.9226Z" fill="#8F4B9D"/>
<path id="Vector_5" d="M106.016 63.1141H104.824V61.9256H102.438V63.1141H101.249V59.5486C101.249 59.2187 101.312 58.9098 101.435 58.6219C101.559 58.3339 101.729 58.08 101.944 57.8653C102.16 57.6506 102.412 57.4805 102.7 57.3548C102.989 57.2292 103.299 57.1689 103.63 57.1689C103.96 57.1689 104.27 57.2318 104.559 57.3548C104.848 57.4779 105.102 57.648 105.318 57.8653C105.533 58.0826 105.704 58.3339 105.83 58.6219C105.953 58.9098 106.016 59.2187 106.016 59.5486V63.1141ZM104.824 60.7397V59.5512C104.824 59.3889 104.793 59.2344 104.73 59.0878C104.667 58.9438 104.583 58.8156 104.475 58.7082C104.367 58.6009 104.241 58.5145 104.094 58.4543C103.95 58.3915 103.795 58.3601 103.63 58.3601C103.464 58.3601 103.312 58.3915 103.165 58.4543C103.021 58.5171 102.892 58.6009 102.784 58.7082C102.677 58.8156 102.59 58.9412 102.53 59.0878C102.467 59.2318 102.435 59.3863 102.435 59.5512V60.7397H104.821H104.824Z" fill="#8F4B9D"/>
<path id="Vector_6" d="M111.794 62.5117C111.515 62.7473 111.208 62.9279 110.867 63.0536C110.526 63.1792 110.171 63.2421 109.804 63.2421C109.52 63.2421 109.25 63.2054 108.987 63.1321C108.725 63.0588 108.481 62.9541 108.255 62.8206C108.029 62.6871 107.819 62.5274 107.63 62.3389C107.441 62.153 107.281 61.9462 107.147 61.7159C107.013 61.4881 106.911 61.242 106.838 60.9802C106.764 60.7184 106.727 60.4462 106.727 60.1635C106.727 59.8807 106.764 59.6111 106.838 59.3519C106.911 59.0928 107.013 58.8493 107.147 58.6216C107.281 58.3938 107.441 58.187 107.63 57.9985C107.819 57.81 108.027 57.6529 108.255 57.5194C108.483 57.3859 108.728 57.2838 108.987 57.2105C109.25 57.1372 109.52 57.1006 109.804 57.1006C110.171 57.1006 110.526 57.1634 110.867 57.2891C111.208 57.4147 111.518 57.5954 111.794 57.831L111.169 58.8676C110.988 58.6844 110.78 58.543 110.544 58.4383C110.308 58.3336 110.061 58.2839 109.801 58.2839C109.541 58.2839 109.297 58.3336 109.069 58.4331C108.84 58.5325 108.641 58.6661 108.468 58.8362C108.294 59.0064 108.161 59.2053 108.061 59.4331C107.961 59.6608 107.911 59.9043 107.911 60.1635C107.911 60.4226 107.961 60.6713 108.061 60.9017C108.161 61.1321 108.297 61.331 108.468 61.5038C108.638 61.6766 108.84 61.8101 109.069 61.9096C109.297 62.009 109.541 62.0588 109.801 62.0588C109.951 62.0588 110.095 62.0405 110.237 62.0038C110.379 61.9672 110.513 61.9174 110.641 61.8546V60.1635H111.794V62.5091V62.5117Z" fill="#8F4B9D"/>
<path id="Vector_7" d="M112.363 58.951C112.363 58.705 112.411 58.4746 112.505 58.2599C112.6 58.0453 112.728 57.8568 112.888 57.6945C113.051 57.5322 113.24 57.4039 113.455 57.3123C113.671 57.218 113.902 57.1709 114.148 57.1709H116.884V58.3594H114.148C114.064 58.3594 113.988 58.3751 113.915 58.4039C113.841 58.4327 113.781 58.4772 113.726 58.5296C113.671 58.5845 113.629 58.6474 113.6 58.718C113.571 58.7887 113.555 58.8673 113.555 58.951C113.555 59.0348 113.571 59.1133 113.6 59.184C113.629 59.2547 113.673 59.3202 113.726 59.3751C113.781 59.4301 113.844 59.472 113.915 59.5008C113.986 59.5296 114.064 59.5453 114.148 59.5453H115.34C115.587 59.5453 115.818 59.5924 116.036 59.684C116.254 59.7757 116.443 59.9039 116.605 60.0662C116.768 60.2285 116.894 60.417 116.989 60.6343C117.081 60.8516 117.128 61.082 117.128 61.328C117.128 61.5741 117.081 61.8045 116.989 62.0192C116.897 62.2338 116.768 62.4223 116.605 62.5846C116.443 62.7469 116.254 62.8752 116.036 62.9668C115.818 63.0611 115.587 63.1082 115.34 63.1082H112.694V61.9197H115.34C115.424 61.9197 115.5 61.904 115.574 61.8752C115.645 61.8438 115.708 61.8019 115.763 61.7495C115.818 61.6972 115.86 61.6317 115.889 61.561C115.92 61.4903 115.933 61.4118 115.933 61.328C115.933 61.2443 115.918 61.1684 115.889 61.0951C115.857 61.0244 115.815 60.9615 115.763 60.9066C115.708 60.8516 115.645 60.8097 115.574 60.7809C115.503 60.7521 115.424 60.7364 115.34 60.7364H114.148C113.902 60.7364 113.671 60.6893 113.455 60.595C113.24 60.5008 113.051 60.3725 112.888 60.2128C112.726 60.0505 112.597 59.862 112.505 59.6448C112.411 59.4275 112.363 59.1971 112.363 58.951Z" fill="#8F4B9D"/>
<path id="Vector_8" d="M124.995 63.1141H123.803V61.9256H121.417V63.1141H120.228V59.5486C120.228 59.2187 120.291 58.9098 120.414 58.6219C120.538 58.3339 120.708 58.08 120.924 57.8653C121.139 57.6506 121.391 57.4805 121.68 57.3548C121.968 57.2292 122.278 57.1689 122.609 57.1689C122.94 57.1689 123.249 57.2318 123.538 57.3548C123.827 57.4779 124.082 57.648 124.297 57.8653C124.512 58.0826 124.683 58.3339 124.809 58.6219C124.932 58.9098 124.995 59.2187 124.995 59.5486V63.1141ZM123.803 60.7397V59.5512C123.803 59.3889 123.772 59.2344 123.709 59.0878C123.646 58.9438 123.562 58.8156 123.454 58.7082C123.347 58.6009 123.221 58.5145 123.074 58.4543C122.929 58.3915 122.774 58.3601 122.609 58.3601C122.444 58.3601 122.291 58.3915 122.144 58.4543C122 58.5171 121.871 58.6009 121.764 58.7082C121.656 58.8156 121.569 58.9412 121.509 59.0878C121.446 59.2318 121.415 59.3863 121.415 59.5512V60.7397H123.801H123.803Z" fill="#8F4B9D"/>
<path id="Vector_9" d="M130.797 63.1141H129.521L127.221 59.2004V63.1141H126.029V57.1689H127.305L129.605 61.0852V57.1689H130.797V63.1141Z" fill="#8F4B9D"/>
<path id="Vector_10" d="M136.677 60.1402C136.677 60.4125 136.643 60.6769 136.572 60.9308C136.501 61.1847 136.401 61.4203 136.27 61.6402C136.139 61.8601 135.984 62.0591 135.805 62.2423C135.624 62.423 135.425 62.58 135.201 62.7083C134.981 62.8392 134.742 62.9387 134.487 63.0094C134.233 63.08 133.97 63.1141 133.695 63.1141H131.899V57.1689H133.695C133.97 57.1689 134.233 57.203 134.487 57.2737C134.742 57.3443 134.978 57.4438 135.201 57.5747C135.422 57.7056 135.624 57.8601 135.805 58.0407C135.986 58.2213 136.141 58.4229 136.27 58.6428C136.398 58.8627 136.501 59.0983 136.572 59.3522C136.643 59.6062 136.677 59.8679 136.677 60.1428V60.1402ZM135.485 60.1402C135.485 59.8941 135.438 59.6638 135.346 59.4491C135.254 59.2344 135.125 59.0459 134.962 58.8836C134.8 58.7213 134.611 58.5931 134.393 58.5014C134.175 58.4072 133.944 58.3601 133.697 58.3601H133.104V61.9256H133.697C133.944 61.9256 134.175 61.8785 134.393 61.7868C134.611 61.6952 134.8 61.5669 134.962 61.4046C135.125 61.2423 135.251 61.0538 135.346 60.8366C135.438 60.6193 135.485 60.3889 135.485 60.1428V60.1402Z" fill="#8F4B9D"/>
<path id="Vector_11" d="M141.042 63.1141H139.85V57.1689H144.024V58.3575H141.045V59.546H142.832V60.7345H141.045V63.1088L141.042 63.1141Z" fill="#8F4B9D"/>
<path id="Vector_12" d="M149.206 63.1141H148.014V61.9256H145.628V63.1141H144.439V59.5486C144.439 59.2187 144.502 58.9098 144.625 58.6219C144.749 58.3339 144.919 58.08 145.135 57.8653C145.35 57.6506 145.602 57.4805 145.891 57.3548C146.179 57.2292 146.489 57.1689 146.82 57.1689C147.151 57.1689 147.46 57.2318 147.749 57.3548C148.038 57.4779 148.293 57.648 148.508 57.8653C148.723 58.0826 148.894 58.3339 149.02 58.6219C149.143 58.9098 149.206 59.2187 149.206 59.5486V63.1141ZM148.014 60.7397V59.5512C148.014 59.3889 147.983 59.2344 147.92 59.0878C147.857 58.9438 147.773 58.8156 147.665 58.7082C147.558 58.6009 147.432 58.5145 147.285 58.4543C147.14 58.3915 146.985 58.3601 146.82 58.3601C146.655 58.3601 146.502 58.3915 146.355 58.4543C146.211 58.5171 146.082 58.6009 145.975 58.7082C145.867 58.8156 145.78 58.9412 145.72 59.0878C145.657 59.2318 145.626 59.3863 145.626 59.5512V60.7397H148.012H148.014Z" fill="#8F4B9D"/>
<path id="Vector_13" d="M149.891 58.951C149.891 58.705 149.938 58.4746 150.033 58.2599C150.128 58.0453 150.256 57.8568 150.416 57.6945C150.579 57.5322 150.768 57.4039 150.983 57.3123C151.199 57.218 151.43 57.1709 151.676 57.1709H154.412V58.3594H151.676C151.592 58.3594 151.516 58.3751 151.443 58.4039C151.369 58.4327 151.309 58.4772 151.254 58.5296C151.199 58.5845 151.157 58.6474 151.128 58.718C151.099 58.7887 151.083 58.8673 151.083 58.951C151.083 59.0348 151.099 59.1133 151.128 59.184C151.157 59.2547 151.201 59.3202 151.254 59.3751C151.309 59.4301 151.372 59.472 151.443 59.5008C151.514 59.5296 151.592 59.5453 151.676 59.5453H152.868C153.115 59.5453 153.346 59.5924 153.564 59.684C153.782 59.7757 153.971 59.9039 154.133 60.0662C154.296 60.2285 154.422 60.417 154.517 60.6343C154.608 60.8516 154.656 61.082 154.656 61.328C154.656 61.5741 154.608 61.8045 154.517 62.0192C154.425 62.2338 154.296 62.4223 154.133 62.5846C153.971 62.7469 153.782 62.8752 153.564 62.9668C153.346 63.0611 153.115 63.1082 152.868 63.1082H150.222V61.9197H152.868C152.952 61.9197 153.028 61.904 153.102 61.8752C153.173 61.8438 153.236 61.8019 153.291 61.7495C153.346 61.6972 153.388 61.6317 153.417 61.561C153.448 61.4903 153.461 61.4118 153.461 61.328C153.461 61.2443 153.446 61.1684 153.417 61.0951C153.385 61.0244 153.343 60.9615 153.291 60.9066C153.236 60.8516 153.173 60.8097 153.102 60.7809C153.031 60.7521 152.952 60.7364 152.868 60.7364H151.676C151.43 60.7364 151.199 60.6893 150.983 60.595C150.768 60.5008 150.579 60.3725 150.416 60.2128C150.254 60.0505 150.125 59.862 150.033 59.6448C149.938 59.4275 149.891 59.1971 149.891 58.951Z" fill="#8F4B9D"/>
<path id="Vector_14" d="M156.632 63.1141H155.441V57.1689H156.632V59.5486H159.013V57.1689H160.205V63.1141H159.013V60.7397H156.632V63.1141Z" fill="#8F4B9D"/>
<path id="Vector_15" d="M162.505 63.1141H161.313V57.1689H162.505V63.1141Z" fill="#8F4B9D"/>
<path id="Vector_16" d="M169.451 60.1661C169.451 60.4489 169.414 60.7185 169.34 60.9803C169.267 61.2421 169.164 61.4855 169.031 61.7133C168.897 61.941 168.737 62.1505 168.548 62.3363C168.359 62.5222 168.151 62.6845 167.923 62.818C167.694 62.9515 167.45 63.0562 167.188 63.1295C166.925 63.2028 166.652 63.2395 166.369 63.2395C166.085 63.2395 165.815 63.2028 165.552 63.1295C165.29 63.0562 165.046 62.9515 164.817 62.818C164.589 62.6845 164.379 62.5222 164.193 62.3363C164.006 62.1505 163.843 61.941 163.71 61.7133C163.576 61.4855 163.471 61.2421 163.397 60.9803C163.324 60.7185 163.287 60.4489 163.287 60.1661C163.287 59.8834 163.324 59.6111 163.397 59.3494C163.471 59.0876 163.576 58.8415 163.71 58.6164C163.843 58.3886 164.006 58.1818 164.193 57.9933C164.379 57.8048 164.589 57.6451 164.817 57.5116C165.046 57.3781 165.293 57.276 165.552 57.2027C165.815 57.1294 166.085 57.0928 166.369 57.0928C166.652 57.0928 166.925 57.1294 167.188 57.2027C167.45 57.276 167.697 57.3781 167.923 57.5116C168.151 57.6451 168.359 57.8048 168.548 57.9933C168.737 58.1818 168.897 58.3886 169.031 58.6164C169.164 58.8441 169.267 59.0876 169.34 59.3494C169.414 59.6111 169.451 59.8834 169.451 60.1661ZM168.267 60.1661C168.267 59.907 168.217 59.6609 168.117 59.4305C168.017 59.2001 167.881 58.9986 167.713 58.8284C167.545 58.6582 167.34 58.5247 167.109 58.4253C166.878 58.3258 166.631 58.276 166.371 58.276C166.112 58.276 165.862 58.3258 165.631 58.4253C165.4 58.5247 165.201 58.6582 165.027 58.8284C164.857 58.9986 164.72 59.1975 164.62 59.4305C164.521 59.6609 164.471 59.907 164.471 60.1661C164.471 60.4253 164.521 60.6688 164.62 60.8965C164.72 61.1243 164.857 61.3232 165.027 61.496C165.198 61.6688 165.4 61.8023 165.631 61.9018C165.862 62.0012 166.109 62.051 166.371 62.051C166.634 62.051 166.878 62.0012 167.109 61.9018C167.34 61.8023 167.542 61.6662 167.713 61.496C167.883 61.3258 168.017 61.1243 168.117 60.8965C168.217 60.6688 168.267 60.4253 168.267 60.1661Z" fill="#8F4B9D"/>
<path id="Vector_17" d="M175 63.1141H173.724L171.425 59.2004V63.1141H170.233V57.1689H171.509L173.808 61.0852V57.1689H175V63.1141Z" fill="#8F4B9D"/>
</g>
</g>
</svg>
